<?xml version="1.0" encoding="UTF-8"?>
<svg width="150px" height="150px" viewBox="0 0 150 150" version="1.1" xmlns="http://www.w3.org/2000/svg" xmlns:xlink="http://www.w3.org/1999/xlink">
    <defs></defs>
    <g id="Page-1" stroke="none" stroke-width="1" fill="none" fill-rule="evenodd">
        <path d="M23.3808594,75.0898438 L36.7929688,75.0898438 C40.1562668,75.035156 42.6855384,73.9961039 44.3808594,71.9726562 C45.9941487,70.0038964 46.8007812,67.8164183 46.8007812,65.4101562 C46.8007812,63.4140525 46.4726595,61.7324287 45.8164062,60.3652344 C45.1328091,59.1347595 44.1757874,58.1640661 42.9453125,57.453125 C41.0859282,56.2773379 38.9257936,55.7167966 36.4648438,55.7714844 L23.3808594,55.7714844 L23.3808594,75.0898438 Z M14.3164062,47.1992188 L35.9726562,47.1992188 C38.3242305,47.1992188 40.5937391,47.4179666 42.78125,47.8554688 C44.9687609,48.4296904 47.1835825,49.6054599 49.4257812,51.3828125 C51.3125094,52.7226629 52.8437441,54.6367063 54.0195312,57.125 C55.2500062,59.531262 55.8652344,62.3749836 55.8652344,65.65625 C55.8652344,70.0859596 54.3066562,74.1191224 51.1894531,77.7558594 C47.9902184,81.5840035 43.3144839,83.5527338 37.1621094,83.6621094 L23.3808594,83.6621094 L23.3808594,107 L14.3164062,107 L14.3164062,47.1992188 Z M63.8222656,51.4648438 L72.3945312,51.4648438 L72.3945312,64.4257812 L78.6289062,64.4257812 L78.6289062,70.9472656 L72.3945312,70.9472656 L72.3945312,95.7617188 C72.3398435,97.9218858 73.3515521,98.9746096 75.4296875,98.9199219 L78.6289062,98.9199219 L78.6289062,107 L74.1582031,107 C71.1503756,107 68.6894627,106.070322 66.7753906,104.210938 C64.8066308,102.433585 63.8222656,99.8632981 63.8222656,96.5 L63.8222656,70.9472656 L59.5566406,70.9472656 L59.5566406,64.4257812 L63.8222656,64.4257812 L63.8222656,51.4648438 Z M87.9394531,93.9980469 C91.4121267,97.6347838 95.8964569,99.453125 101.392578,99.453125 C103.853528,99.453125 105.863273,98.9746142 107.421875,98.0175781 C108.980477,97.0605421 109.759766,95.7207117 109.759766,93.9980469 C109.759766,92.4667892 109.294927,91.4003936 108.365234,90.7988281 C107.408198,90.1699187 106.136727,89.8281253 104.550781,89.7734375 L97.0039062,89.1171875 C93.4218571,88.7890609 90.5097768,87.5859479 88.2675781,85.5078125 C85.9706916,83.4843649 84.7949221,80.6543151 84.7402344,77.0175781 C84.7949221,72.6425562 86.3398286,69.3613391 89.375,67.1738281 C92.3281398,64.9863172 96.0741961,63.8925781 100.613281,63.8925781 C102.582041,63.8925781 104.345695,64.0156238 105.904297,64.2617188 C107.462898,64.5351576 108.925774,64.9179663 110.292969,65.4101562 C112.917982,66.4765678 115.269521,67.9121004 117.347656,69.7167969 L112.056641,75.9101562 C110.416007,74.7343691 108.679697,73.7636757 106.847656,72.9980469 C105.04296,72.3144497 102.964856,71.9726562 100.613281,71.9726562 C97.9335804,71.9726562 96.0605522,72.4511671 94.9941406,73.4082031 C93.8730413,74.3652392 93.3125,75.5956956 93.3125,77.0996094 C93.2578122,78.0566454 93.6816361,78.8906214 94.5839844,79.6015625 C95.404301,80.3945352 96.8535052,80.9003895 98.9316406,81.1191406 L105.986328,81.6523438 C110.416038,81.9804704 113.615225,83.3203007 115.583984,85.671875 C117.416025,87.9687615 118.332031,90.8808417 118.332031,94.4082031 C118.277343,98.53713 116.59572,101.722645 113.287109,103.964844 C110.005843,106.26173 105.808619,107.4375 100.695312,107.492188 C93.7499653,107.492188 87.5019809,104.949244 81.9511719,99.8632812 L87.9394531,93.9980469 Z M133.138672,107.492188 C129.447266,107.492188 126.535156,104.539062 126.535156,100.888672 C126.535156,97.1972656 129.447266,94.2851562 133.138672,94.2851562 C136.830078,94.2851562 139.742188,97.1972656 139.742188,100.888672 C139.742188,104.539062 136.830078,107.492188 133.138672,107.492188 Z" id="Pts.-Copy-2" fill="#4422EE"></path>
    </g>
</svg>